<svg xmlns="http://www.w3.org/2000/svg" viewBox="0 0 64 64" role="img" aria-label="WendAnswerToday blue and gold puzzle W logo">
  <defs>
    <linearGradient id="blueTop" x1="11" x2="32" y1="9" y2="32" gradientUnits="userSpaceOnUse">
      <stop stop-color="#2388FF"/>
      <stop offset="1" stop-color="#0B56D9"/>
    </linearGradient>
    <linearGradient id="blueBottom" x1="9" x2="32" y1="33" y2="57" gradientUnits="userSpaceOnUse">
      <stop stop-color="#0D4DA7"/>
      <stop offset="1" stop-color="#06347F"/>
    </linearGradient>
    <linearGradient id="gold" x1="32" x2="57" y1="9" y2="57" gradientUnits="userSpaceOnUse">
      <stop stop-color="#FFB600"/>
      <stop offset="1" stop-color="#FFD33D"/>
    </linearGradient>
  </defs>
  <rect x="4" y="4" width="56" height="56" rx="11" fill="#082F6F"/>
  <path d="M7 16.5C7 11.3 11.3 7 16.5 7H32v25H7V16.5Z" fill="url(#blueTop)"/>
  <path d="M7 32h25v25H16.5C11.3 57 7 52.7 7 47.5V32Z" fill="url(#blueBottom)"/>
  <path d="M32 7h15.5C52.7 7 57 11.3 57 16.5V32H32V7Z" fill="url(#gold)"/>
  <path d="M32 32h25v15.5C57 52.7 52.7 57 47.5 57H32V32Z" fill="url(#gold)"/>
  <circle cx="32" cy="32" r="3.5" fill="#FFD33D"/>
  <path d="M13 24h5.8l6.5 19.3L32 27.8l6.7 15.5L45.2 24H51L41.6 50h-5.7L32 39.4 28.1 50h-5.7L13 24Z" fill="#fff"/>
  <circle cx="16.5" cy="20.5" r="4.3" fill="#fff"/>
  <circle cx="47.5" cy="20.5" r="4.3" fill="#fff"/>
  <circle cx="32" cy="48" r="4.3" fill="#fff"/>
  <circle cx="16.5" cy="20.5" r="2" fill="#1677F2"/>
  <circle cx="47.5" cy="20.5" r="2" fill="#FFB600"/>
  <circle cx="32" cy="48" r="2" fill="#2563EB"/>
</svg>
