<svg xmlns="http://www.w3.org/2000/svg" viewBox="0 0 64 64" role="img" aria-label="WendAnswerToday blue path W over yellow and white puzzle tiles logo">
  <defs>
    <linearGradient id="blue" x1="10" x2="54" y1="8" y2="58" gradientUnits="userSpaceOnUse">
      <stop stop-color="#2485F3"/>
      <stop offset="1" stop-color="#0759C5"/>
    </linearGradient>
    <linearGradient id="gold" x1="6" x2="58" y1="8" y2="56" gradientUnits="userSpaceOnUse">
      <stop stop-color="#FFD93D"/>
      <stop offset="1" stop-color="#FFB800"/>
    </linearGradient>
    <filter id="softShadow" x="-20%" y="-20%" width="140%" height="140%">
      <feDropShadow dx="0" dy="2" stdDeviation="1.5" flood-color="#083F91" flood-opacity=".28"/>
    </filter>
  </defs>
  <rect x="2.5" y="2.5" width="59" height="59" rx="12" fill="url(#blue)"/>
  <rect x="6.5" y="6.5" width="51" height="51" rx="9" fill="#FFFCF4"/>
  <path d="M32 6.5h16.5A9 9 0 0 1 57.5 15.5V32H32V6.5Z" fill="url(#gold)"/>
  <path d="M6.5 32H32v25.5H15.5A9 9 0 0 1 6.5 48.5V32Z" fill="url(#gold)"/>
  <path d="M32 6.5v12.2c0 1 .4 2 1.2 2.7l3.7 3.7c1.3 1.3 1.3 3.5 0 4.8L32 34.8V32H6.5V15.5A9 9 0 0 1 15.5 6.5H32Z" fill="#FFFCF4"/>
  <path d="M57.5 32v16.5A9 9 0 0 1 48.5 57.5H32V44.2l-5-5a3.4 3.4 0 0 1 0-4.8l2.4-2.4h28.1Z" fill="#FFFCF4"/>
  <path d="M13.8 18.4 25.6 49 32 29.6 38.4 49 50.2 18.4" fill="none" stroke="url(#blue)" stroke-linecap="round" stroke-linejoin="round" stroke-width="7" filter="url(#softShadow)"/>
  <circle cx="13.8" cy="18.4" r="5.1" fill="url(#blue)"/>
  <circle cx="50.2" cy="18.4" r="5.1" fill="url(#blue)"/>
  <circle cx="32" cy="29.6" r="5.1" fill="url(#blue)"/>
  <circle cx="25.6" cy="49" r="5.1" fill="url(#blue)"/>
  <circle cx="38.4" cy="49" r="5.1" fill="url(#blue)"/>
  <circle cx="13.8" cy="18.4" r="2.2" fill="#FFFCF4"/>
  <circle cx="50.2" cy="18.4" r="2.2" fill="#FFFCF4"/>
  <circle cx="32" cy="29.6" r="2.2" fill="#FFFCF4"/>
  <circle cx="25.6" cy="49" r="2.2" fill="#FFFCF4"/>
  <circle cx="38.4" cy="49" r="2.2" fill="#FFFCF4"/>
</svg>
